<?xml version="1.0" encoding="UTF-8"?>
<svg id="Layer_2" data-name="Layer 2" xmlns="http://www.w3.org/2000/svg" viewBox="0 0 92.91 71.72">
  <defs>
    <style>
      .cls-1 {
        fill: #fafaf5;
      }

      .cls-1, .cls-2, .cls-3 {
        stroke: #131313;
        stroke-miterlimit: 10;
      }

      .cls-1, .cls-3 {
        stroke-width: .25px;
      }

      .cls-2 {
        stroke-linecap: round;
        stroke-width: .5px;
      }

      .cls-2, .cls-3 {
        fill: none;
      }

      .cls-4 {
        fill: #f3f3c2;
      }

      .cls-4, .cls-5, .cls-6, .cls-7, .cls-8, .cls-9, .cls-10, .cls-11, .cls-12 {
        stroke-width: 0px;
      }

      .cls-5 {
        fill: #954d29;
      }

      .cls-6 {
        fill: #313131;
      }

      .cls-7 {
        fill: #202020;
      }

      .cls-8 {
        fill: #131313;
      }

      .cls-9 {
        fill: #c2d94e;
      }

      .cls-10 {
        fill: #a26444;
      }

      .cls-11 {
        fill: #e5bd17;
      }

      .cls-12 {
        fill: #fdd000;
      }
    </style>
  </defs>
  <g id="flying-banana">
    <g id="flying-banan">
      <g>
        <polygon class="cls-7" points="22.67 39.03 22.74 39.08 22.77 38.85 22.67 39.03"/>
        <path class="cls-7" d="m23.25,38.34s-.04-.09-.07-.12c-.1.24-.18.46-.25.7.28.25.12-.75.32-.58Z"/>
        <path class="cls-7" d="m23.39,38.37c.21.09.21-.2.24-.3-.01.23-.35.02-.24.3Z"/>
        <path class="cls-7" d="m38,43.9s-.03-.03-.05-.04c0,.03.03.04.05.04Z"/>
        <path class="cls-7" d="m40.73,47.56l.23-.02c-.64-.69-.59-1.76-1.16-2.53l.1.02c-.45-1.09-1.17-2.04-2.04-2.76-.89-.71-1.89-1.19-2.85-1.85.04,0,.09-.04.14-.04-.14,0-.32.02-.41-.07,0-.06.09-.06.14-.05-.14-.57-1.21-.81-1.23-1.23-.12-.07-.27,0-.3.14-.65-.61-1.34-.97-2.21-1.06-.85-.1-1.83-.09-2.73-.04-.08-.06-.09-.16-.05-.28-1.58.45-3.09.17-4.56.38-.02.16.18.14.07.32.47.1.78-.52,1.24-.28l-.04.16c.31.07.03-.38.37-.21.13.12-.02.19.04.2.66-.1,1.35.06,2.03-.27.14.34.75.07.98.41.19-.11.37-.06.46-.27,1.26.24,2.5.25,3.27.71.42.24.85.65,1.34,1.1.5.47,1.06.91,1.58,1.31.68.12,1.2.52,1.66,1.01.47.48.79,1.04,1.26,1.5-.01.02-.03.03-.05.04.38.25.78.77.94,1.29l.44.3c.42,1.6.8,3.22,1.38,4.87.28.82.62,1.65,1.05,2.45.2.41.45.79.7,1.18.11.17.17.24.25.36.08.12.14.2.19.26.03.04.07.08.1.12.06.04,0,.07-.05.1-.05.03-.09.06-.14.09-.09.05-.18.1-.27.14-.04.02-.08.04-.13.05-.04.02-.04,0-.16.06-.19.06-.37.14-.56.19-.76.23-1.55.34-2.37.43-1.62.16-3.39.26-5.2.71,0-.06-.03-.1.07-.12-1.08.15-2.07-.08-3.08.02v-.06c-2.55.45-5.18-.51-7.67-.47-2.91-.67-6.15-1.58-9.22-2.4l.05-.12c-2.48-.56-4.7-1.76-6.76-2.98-.93-.83-1.95-1.64-2.96-2.55-.98-.9-2.03-1.83-2.51-3.08-.12-.84-.55-1.61-.86-2.51-.32-.89-.51-1.83-.22-2.59.45-1.57.58-3.08,1.35-4.15.38-.53.98-.93,1.72-1.1.74-.18,1.56-.16,2.36-.09,2.69,1.15,5.64,1.34,8.13,2.73,1.37-.09,2.58,1.21,4.11,1.25l-.04-.16c.5.52,1.22-.55,1.52.15l-.06.03c.28.36.67-.82.83-.4l.04-.18c.33-.06.04.2.3.26.1-.03.03-.32.23-.23.09.73.8-.21.9.59-.19.02.34.28-.08.49.13.07.73-.03.63-.37,0-.37.17-.71-.21-.95l-.03.27c-.15-.25-.1-.12-.17-.32-.44,0-.53-.36-.84-.5,0,0,0,.01,0,.03-.19.32-.49.15-.65.11l-.07-.15c-.1-.3-.48.6-.35.08-.86.13-1.87.03-2.84-.12-.17.17-.74-.15-.6.27-.17-.47-.86-.74-1.13-.78.02-.04.04-.08.08-.06-.38-.68-.74.36-1.05-.44-.21.46-.83-.39-1.27.08-.03-.12-.02-.23.03-.3-.87-.27-1.77-.75-2.51-1.02-.77.2-1.48-.7-2.22-.31-.42-.27-1.08-.75-1.81-.72l.08-.05c-.72-.2-1.79-.44-2.42-.11-.2-.6-.62-.51-1.06-.66-.33.16-.84.28-1.37.55-.53.27-1.02.7-1.27,1.17-.34-.05-.39.74-.74.59-.35,1.46-.27,2.73-.32,4.01-.01,1.25-.2,2.5-.2,3.85l-.03-.03c.28.3.83.55,1.19.76-.02.04-.08.06-.1,0,.2.39.03.94.31,1.32-.06.03-.06.03-.15-.01.35.3.19.95.73,1.19l-.07.08.3.17c-.11.07-.27.18-.34.02.56.81,1.16,1.47,1.8,2.15.64.68,1.35,1.34,2.13,1.94,1.57,1.25,3.48,1.93,5.22,2.56l-.17.07.76.03c-.02.06-.07.08-.11.1.81.49,1.82.44,2.65.76-.02.06-.19.13-.09.24.73-.13.88.75,1.41.16.02.04,0,.2-.09.24,1.83.32,3.63.87,5.41,1.44,1.65-.25,3.22.7,4.9.45l-.03.13c2.11-.1,4.24.58,6.41.51.89.06,1.5-.1,2.39-.12l.03.16c1.48-.66,3.19.51,4.74-.32l-.09.23c.21-.36.98,0,.8-.57l.3.13c.46-.47.92-.48,1.45-.52.5-.03,1.15-.12,1.54-.66.01.05.02.09.03.14.24-.27.42-.51.78-.64,0,.03.06.03.03.1.13-.05.25-.11.37-.17l.18-.1s0-.07.02-.11c-.14-.19-.35-.41-.58-.61-.21-.21-.42-.41-.64-.6-.37-.36-.71-.69-.92-1.13h.29c-.55-.33-.69-1.39-1.07-2.01h.13s-.28-.29-.28-.29l.23-.09c-.3-.89-.76-1.68-1.08-2.55Z"/>
        <path class="cls-7" d="m34.87,40.26s0,0,0,.01c.04,0,.02,0,0-.01Z"/>
        <path class="cls-7" d="m21.61,36.93s.08.03.11.05c-.01-.05-.08-.04-.11-.05Z"/>
      </g>
      <path class="cls-4" d="m23.63,37.69c-5.49.76-10.84-1.67-16.14-3.28-1.35-.41-2.89-.74-4.09,0-1.53.95-1.67,3.08-1.62,4.87.04,1.57.11,3.18.73,4.62.48,1.12,1.27,2.08,2.06,3.01,1.12,1.33,2.28,2.67,3.72,3.65,1.51,1.01,3.26,1.58,4.99,2.14,5.54,1.78,11.15,3.58,16.95,4,2.43.17,4.88.1,7.32.03,2.65-.08,5.55-.26,7.46-2.08-3.55-3.02-3.1-8.91-6.31-12.29-1.05-1.11-2.42-1.86-3.54-2.9-.61-.58-1.16-1.25-1.89-1.67-.78-.44-1.69-.55-2.58-.65-2.61-.3-5.35-.58-7.79.4"/>
      <path class="cls-12" d="m79.2,10.38c2.51-2.08,4.17-5.17,4.5-8.41,2.23-1.1,4.74-1.62,7.22-1.5-3.61,3.63-7.42,7.67-7.94,12.76-.14,1.4-.03,2.82-.21,4.21-.22,1.68-.86,3.27-1.55,4.81-3.43,7.64-8.34,14.61-14.37,20.42-2.11,2.03-4.57,4.69-3.59,7.45.55,1.55,2.05,2.52,3.45,3.38,2.56,1.57,5.11,3.14,7.67,4.7,3.18,1.95,6.48,3.94,10.18,4.37.91.11,1.87.12,2.7.53s1.48,1.36,1.18,2.23c-.19.54-.68.9-1.16,1.22-6.54,4.3-14.89,5.46-22.54,3.82-7.65-1.63-14.6-5.91-20.09-11.48-1.79-1.82-3.47-3.84-4.27-6.26-.71-2.16-.69-4.55-1.61-6.63-.84-1.89-2.4-3.37-3.91-4.78-1.23-1.15-2.53-2.34-4.15-2.82-1.3-.38-2.68-.27-4.03-.32-4.96-.18-9.79-2.69-12.78-6.66-4.45-5.9-4.91-14.55-10.63-19.21-.2-.16-.41-.32-.53-.54-.63-1.1,1.08-2.06,2.35-2.06,3.8,0,7.4,1.59,10.85,3.18,3.18,1.47,6.39,3.01,9.01,5.34,2.06,1.83,3.69,4.09,5.51,6.15,4.62,5.24,11.49,9.48,18.3,7.94,4.25-.96,7.69-3.99,10.93-6.91,4.49-4.05,8.99-8.1,13.48-12.15,1.65-1.49,3.79-3.09,5.89-2.36"/>
      <path class="cls-9" d="m83.9,1.35c-.13,1.13-.68,2.16-1.22,3.16-.74,1.37-1.48,2.73-2.21,4.1-.05.09-.1.19-.08.29.02.11.1.19.18.26.67.58,1.39,1.09,2.16,1.53,2.08-2.09,4.2-4.22,5.53-6.85.48-.95.86-1.97,1.61-2.73-.99.64-2.27.57-3.42.32-.86-.19-1.75-.46-2.59-.21"/>
      <g>
        <path class="cls-7" d="m80.12,10.31l-.16-.09c-.16,0-.32-.02-.47,0,.21,0,.42.06.64.09Z"/>
        <path class="cls-7" d="m77.26,10.61c.08-.01.06.03.14.02.47-.26,1.02-.46,1.62-.53-.84-.2-1.3.47-1.75.51Z"/>
        <path class="cls-7" d="m76.81,10.76c-.6.2-.74.47-.83.57.11-.22,1.01-.5.83-.57Z"/>
        <path class="cls-7" d="m35.07,27.5s.1.07.14.11c-.07-.06-.11-.09-.14-.11Z"/>
        <path class="cls-7" d="m25.64,18.24h-.18c2.02,1.45,3.57,3.83,5.34,5.76l-.15-.11c2.15,2.55,4.61,4.7,7.4,6.27,2.78,1.56,5.93,2.58,9.23,2.4-.1.02-.13.05-.24.08.32-.06.66-.16,1.01-.17.09.02-.09.06-.21.08.35.04.78-.02,1.23-.11.46-.07.93-.21,1.39-.36.91-.3,1.7-.71,2.12-.83.34-.19.46-.34.24-.29,2.28-1.16,4.35-2.87,6.33-4.66,1.98-1.81,3.95-3.66,5.85-5.47.2-.15.27-.14.26-.05,1.57-1.62,3.25-3.19,4.97-4.74l2.6-2.31c.87-.76,1.74-1.56,2.74-2.22.11-.17-.46.2-.11-.13-1.36.81-2.03,1.92-3.13,2.69l.08-.17c-.76.62-.02.27-.84.88-.34.22,0-.14-.13-.02-1.52,1.41-3.17,2.81-4.5,4.26-.47.2-1.66,1.49-2.33,1.89-.36.41-.77.76-.85.97-1.35,1.21-2.72,2.42-4.08,3.64-1.36,1.22-2.73,2.43-4.2,3.49-1.47,1.07-3.05,1.99-4.75,2.57-1.7.59-3.53.78-5.32.61-1.7,0-3.56-.53-5.32-1.39-1.77-.85-3.46-2.03-5.06-3.28-.01-.03,0-.03.02-.02-1.09-.77-2.53-2.09-3.55-3.31l-.98-.94c-1.5-1.89-2.97-3.86-4.86-5.49-1.88-1.63-4.05-2.87-6.26-3.96-2.22-1.07-4.44-2.13-6.77-3.01-1.16-.44-2.36-.81-3.59-1.06-.61-.13-1.23-.23-1.86-.29-.63-.04-1.24-.13-1.94,0-.75.17-1.49.45-2.02,1.2-.26.38-.27,1.01-.02,1.39.26.43.59.59.81.82,1.01.85,1.81,1.88,2.54,2.95,1.42,2.18,2.36,4.59,3.29,7.01.95,2.41,1.86,4.89,3.26,7.17,1.36,2.31,3.32,4.34,5.7,5.73-.03.02.04.08-.21-.06,2.7,1.69,5.53,2.75,8.55,2.86v.03c1.85.04,3.74-.25,5.37.66,1.61.86,2.94,2.29,4.29,3.57,1.33,1.32,2.48,2.81,2.97,4.57.53,1.74.66,3.59,1.26,5.28.63,2.09,1.98,3.96,3.52,5.62,1.55,1.66,3.26,3.23,5.08,4.68,3.66,2.87,7.84,5.21,12.19,6.6l-.04.05c3.48,1.1,7.05,1.75,10.65,1.77,3.59.03,7.22-.53,10.63-1.88,1.77-.64,3.49-1.5,5.09-2.58.4-.27.82-.56,1.1-1.02.29-.45.29-1.06.07-1.53-.22-.47-.59-.85-1.02-1.1-.44-.25-.93-.36-1.41-.43-.97-.12-1.93-.13-2.87-.34-.94-.19-1.87-.48-2.76-.83-1.79-.71-3.45-1.66-5.04-2.68-1.91-1.35-4.26-2.69-6.57-4-1.15-.67-2.32-1.29-3.38-2-1.05-.7-1.96-1.65-2.23-2.74-.31-1.1-.09-2.25.43-3.22.5-.98,1.21-1.83,1.96-2.63.75-.8,1.57-1.55,2.36-2.34.79-.79,1.54-1.61,2.28-2.44,2.93-3.35,5.45-7.04,7.6-10.99,1.08-1.77,2.05-3.6,2.92-5.48.86-1.87,1.68-3.8,1.87-5.83.09-1.01.05-2.04.09-3.07.03-1.04.21-2.07.5-3.06.59-1.99,1.68-3.77,2.95-5.33,1.05-1.6,2.48-3.05,3.98-4.45l.61-.57.16-.15.08-.08s-.05,0-.08-.01l-.39-.03c-.5-.03-1.15-.04-1.68,0-1.06.06-2.12.26-3.14.59l.17.03c-.78.11-1.52.49-2.24.92-.02.83-.12,1.5-.41,1.93l.03-.16c-.35.71-.18,1.92-.6,2.29l.03.16c-.43.89-.13.07-.53.71-.13.25.1.18-.27.66-.19-.04-.49.47-.85.94-.35.48-.75.91-.92.79.36-.38-.67.48.06-.42-.23.24-1.38,1.31-1.18,1.34,0,.23-.38.77.47.23l.07-.23c.34-.12.23-.12.39-.13.95-.92,1.2-.95,1.85-1.67,0,0-.02.01-.01,0,.27-.62.8-1.35,1.05-1.82l.16-.15c.3-.22.32-1.53.41-1.05.23-.65.43-1.33.57-2.05l.09-.54.04-.27v-.13c0-.07.1-.09.16-.13l.43-.19c1.3-.55,2.72-.91,4.14-1.04.05-.02.12-.03.2-.05.06,0,.13-.02.21-.03.09-.01.2-.02.3-.03.19-.01.41-.03.4-.13.23.07-.31.36-.55.57l-.2.17c-.12.12-.25.24-.36.35-.24.24-.44.45-.58.6,0-.04.01-.08.11-.17-1.3.99-1.07,1.57-2.29,2.53.02.17-.41.7-.86,1.32-.45.62-.9,1.35-.97,1.8-.14.14-.21.17-.22.09-.66,1.21-1.22,2.58-1.52,3.98-.32,1.4-.31,2.78-.34,3.88.1.95-.04,2.03-.36,3.07-.31,1.04-.73,2.02-.92,2.84-.61,1.22-1.68,3.15-2.49,4.87l.06-.18c-1,1.9-2.41,4.18-3.09,5.5-.59.37-1.08,1.16-1.7,1.85-.73,1.24-2.55,3.49-3.94,5.19-.33.16-1.18,1.37-1.4,1.31-.97,1.19-2.15,2.3-3.29,3.61-.56.65-1.11,1.35-1.55,2.15-.43.79-.81,1.68-.83,2.66-.03.97.27,1.96.84,2.73.57.78,1.3,1.37,2.03,1.88,1.45.97,2.89,1.93,4.27,2.84l-.09-.04c.79.36,1.75.67,2.56,1.01.06.06.04.08-.12-.02,1.05.6,1.91,1.35,2.96,1.95t-.21-.05c1.01.51,1.93,1.35,3.21,1.84l.04.08.8.32s-.12.12-.52-.1c1.18.59,2.41,1.12,3.71,1.49.65.18,1.31.33,1.99.42.68.11,1.34.12,1.93.22.6.1,1.12.28,1.48.64.38.36.57.87.43,1.25-.13.41-.63.77-1.19,1.12-.55.35-1.09.7-1.67,1-4.55,2.54-9.9,3.68-15.15,3.4l.39-.04c-.68,0-1.36.01-2.04-.03.01-.03.11-.04.21-.04-2.57-.33-5.24-.76-7.64-1.6.02-.03.4.03.08-.11-1.83-.46-2.72-1.27-3.71-1.35-.07-.05-.09-.15.09-.1-4.79-2.07-9.19-5.35-12.79-9.17-1.62-1.46-3.14-3.3-3.91-5.49-.77-2.18-.72-4.68-1.79-6.78h.07c-.66-1.37-1.68-2.53-2.76-3.59-1.11-1.05-2.18-2.15-3.44-3.07-.63-.45-1.33-.82-2.09-1.04-.76-.22-1.55-.27-2.32-.29-1.55,0-3.09-.07-4.58-.42-2.45-.63-4.09-1.28-6.2-2.73v-.1c-1.84-1.13-3.4-2.88-4.51-4.87-1.13-1.99-1.96-4.14-2.94-6.18l.22.25c-.41-.59-.94-2.57-1.11-2.21l-.21-.77c-.75-1.35-1.27-2.64-1.93-3.96-.66-1.31-1.46-2.72-2.89-3.96.08.04.16.07.23.12-.38-.32-.8-.67-1.19-1-.42-.28-.69-.8-.54-1.16-.02.11.01.07.03.29-.01-.37.24-.68.54-.9.3-.22.67-.38,1.04-.48.38-.11.75-.14,1.17-.12.41,0,.82.03,1.24.06,1.65.14,3.32.54,4.86,1.1h-.39c1.56.36,4.17,1.7,6.09,2.54h-.14s.99.38.99.38l-.03.12c2.44,1.2,4.74,2.37,6.76,4.11Z"/>
        <path class="cls-7" d="m47.85,32.55s-.02,0-.03,0c-.08.02-.04.01.03,0Z"/>
        <path class="cls-7" d="m82.87,8.23c-.08.1-.15.19-.22.27.04,0,.15-.18.22-.27Z"/>
      </g>
      <g>
        <ellipse class="cls-1" cx="9.45" cy="39.72" rx="3.18" ry="1.78" transform="translate(-30.93 45.76) rotate(-85.13)"/>
        <line class="cls-3" x1="7.7" y1="39.3" x2="11.24" y2="39.32"/>
        <path class="cls-3" d="m8.27,39.3s-.16,1.39.35,1.79.65-1.65.65-1.65"/>
        <path class="cls-8" d="m8.27,39.3h.99s-.23,1.85-.46,1.87-.7-1.69-.53-1.87Z"/>
      </g>
      <path class="cls-2" d="m2.18,45.92s2.03,5.53,7.74,0"/>
      <path class="cls-5" d="m91.12,1.13c-1.79-.13-3.59-.08-5.38.16-.55.07-1.14.2-1.51.77.97.48,2-.23,3.01-.49,1.06-.27,2.14-.05,3.22-.14.2-.02.46-.28.32-.47-2.03-.55-4.12-.61-6.16-.16-.35.08-.78.27-.84.77-.04.35.14.68.37.84s.48.16.73.16c1.29.01,2.73-.13,3.58-1.5"/>
      <g>
        <polygon class="cls-10" points="88.2 .71 88.16 .7 88.23 .77 88.2 .71"/>
        <path class="cls-10" d="m88.28.99s.04.02.06.03l-.18-.26c-.16-.06.23.26.12.22Z"/>
        <path class="cls-10" d="m88.24,1c-.08,0,.02.09.05.13-.07-.08.08-.05-.05-.13Z"/>
        <path class="cls-10" d="m84.74,2.11s0,0,.01,0c0,0,0,0-.01,0Z"/>
        <path class="cls-10" d="m84.02,1.51l-.11-.03c.15.26.01.54.23.74h-.04c.06.12.16.23.27.3.24.14.5.12.72.08.22-.05.44-.09.67-.14,0,.01,0,.05-.02.06.03-.04.05-.11.08-.1,0,.02,0,.05-.02.06.13.18.34-.14.43,0,.03-.02.04-.1.01-.16.42-.09.87-.25,1.16-.56.03.01.05.06.08.11.16-.42.46-.52.73-.77-.05-.06-.09-.03-.13-.1-.14.01.02.28-.16.24l-.04-.06c-.08.01.12.15,0,.13-.06-.03-.06-.08-.07-.07-.09.12-.24.15-.26.38-.11-.13-.14.08-.26-.04,0,.07-.05.07-.02.18-.51.14-1.06.38-1.69.38-.28.32-.69-.04-.86,0,0-.01,0-.02.01-.03-.03.02-.07.03-.11.02-.05,0-.1-.05-.12-.11-.05,0-.1,0-.16,0-.03-.37.06-.61.27-.75.22-.15.69-.22,1.1-.24.96-.06,1.75.13,2.68-.24,0,.03,0,.05-.02.06.27-.05.5.09.76.05v.03c.65-.18,1.25.23,1.89.13l-.06-.04h.01c.06.07-.07.24-.21.28-.14.02-.37.03-.56.04-.4.02-.81.02-1.21.06v-.06c-.61.12-1.3-.16-1.91.16-.67.07-1.13.86-1.85.7-.22-.17-.46-.08-.75-.11h-.03s.01-.05.01-.05c.05-.21.19-.42.41-.4.46-.02.76-.03,1.13-.14.37-.1.74-.3,1.11-.48.73.1,1.44-.37,2.15-.03.33-.23.7.28,1.06.23v-.08c.11.24.3-.32.36.04v.02c.05.18.17-.41.2-.2l.02-.09c.09-.02,0,.1.07.14.03,0,.02-.16.07-.11-.01.36.21-.06.19.34-.05,0,.06.16-.05.24.03.04.17.03.17-.14.03-.18.09-.34.02-.48l-.03.13c-.02-.13-.02-.07-.02-.17-.11-.03-.11-.22-.19-.3,0,0,0,0,0,.01-.07.15-.14.06-.18.03v-.07c-.03-.16-.16.29-.11.03-.24.05-.5.04-.77.04-.04.1-.2-.01-.15.18-.06-.22-.26-.28-.33-.27,0-.02,0-.04.02-.04-.14-.29-.17.27-.3-.09-.02.25-.24-.08-.31.22-.02-.05-.02-.1-.02-.15-.24,0-.5-.08-.71-.08-.16.23-.42-.08-.55.23-.13-.06-.33-.17-.49-.03v-.04c-.18.03-.42.07-.53.28-.09-.28-.16-.21-.26-.3-.11.15-.37.14-.55.29-.05-.13-.16.08-.2-.11-.46.4-1.12.54-1.69,1.05l-.37.33.6.49c.08.07.17.14.25.2h-.02c.14-.06.31-.25.41-.38,0,.02,0,.05-.02.05.12-.01.22.18.35.15,0,.03,0,.03-.02.06.11-.09.26.15.38-.02v.05s.09-.08.09-.08c0,.06.02.16-.03.14,1.1-.14,1.7-.96,2.59-.95l-.03.06.16-.12s0,.05-.01.06c.22.09.44-.09.66-.06,0,.03-.03.09,0,.13.16-.17.25.23.34-.13,0,.02.01.1,0,.13.47-.11.92-.08,1.45-.07.22-.13.29-.26.39-.39.08-.12.17-.37.02-.56l-.04-.06-.06-.02c-.18-.05-.37-.1-.58-.02l.02-.06c-.55.11-1.05-.22-1.6-.23-.22-.05-.38.02-.6,0v-.08c-.39.29-.8-.3-1.2.05l.02-.11c-.05.17-.24-.05-.21.24l-.07-.09c-.24.4-.5-.14-.8.14v-.07c-.07.06-.16.12-.23.07,0-.01,0-.03.02-.05-.31-.24-.57.12-.85.16v-.13c-.09.17-.4.09-.55.25l-.02-.06s-.03.08-.05.12l-.07-.1c-.26.14-.34.46-.35.7Z"/>
        <path class="cls-10" d="m85.81,2.49h0s0,0,0,0Z"/>
        <path class="cls-10" d="m91.15.54l.03.03s-.02-.02-.03-.03Z"/>
      </g>
    </g>
    <path class="cls-11" d="m77.32,20.92c-.5-.05-.85.54-1.9,1.93-.96,1.27-.8.96-1.42,1.82-.97,1.35-1.05,1.69-1.73,2.42-.63.69-1.19,1.08-1.46,1.28-2.56,1.92-3.84,5.33-7.08,8.61-.74.75-1.9,1.81-3.55,2.9.44.02,1.1.02,1.88-.13.76-.15,2.87-.7,6.06-4.04.99-1.03,1.84-2.19,2.68-3.34,1.74-2.36,3.47-4.72,5.21-7.08.43-.59.86-1.17,1.23-1.8,0,0,.3-.43.61-1.19.19-.47.21-.67.14-.86-.1-.26-.38-.49-.67-.52Z"/>
    <g>
      <polygon class="cls-6" points="59.53 40.39 59.56 40.41 59.54 40.31 59.53 40.39"/>
      <path class="cls-6" d="m59.6,40.08s-.03-.04-.04-.06l.04.32c.13.12-.08-.34,0-.26Z"/>
      <path class="cls-6" d="m59.65,40.09c.08.04.02-.1.01-.14.04.1-.1.02-.01.14Z"/>
      <path class="cls-6" d="m63.26,37.7s0,.01,0,.02c0,0,.01,0,0-.02Z"/>
      <path class="cls-6" d="m63.83,36.62l-.07-.09c-.02.29-.33.29-.44.49v-.04c-.47.32-.77.77-1.18,1.15,0-.01-.02-.04-.02-.06,0,.05.01.12-.02.13-.02-.02-.02-.05-.02-.06-.2-.09-.22.29-.36.21-.02.03.01.11.06.15-.34.28-.72.55-1.03.9-.03-.01-.06-.05-.09-.11-.18.45-.58.55-.94.7.03.08.08.05.08.14.16.02.1-.28.27-.21l.03.07c.1,0-.08-.17.04-.13.06.04.04.09.06.08.14-.11.33-.15.38-.39.12.12.17-.09.3.01,0-.08.05-.09.01-.19.58-.24,1.03-.71,1.56-1.06.06-.43.57-.33.79-.63,0,0,.02.02.02.03.05-.13.15-.27.28-.32v-.18c.82-.32,1.31-1.07,1.92-1.65.67-.7,1.32-1.27,1.48-2.26.02.02.04.02.04.05.09-.25.32-.39.41-.63l.03.02c.13-.66.75-1.01.91-1.64.49-.53,1.03-1.13,1.55-1.69l.04.05c.37-.51,1.04-.64,1.42-1.13.57-.33.67-1.16,1.23-1.5.5-.09.33-.91.81-.99.86-.27,1.08-1.04,1.34-1.8.58-.43.68-1.25,1.38-1.54.03-.39.64-.34.82-.66l-.07-.04c.26.05-.07-.43.25-.27v.02c.18.06-.22-.39-.03-.29l-.06-.06c.03-.08.08.06.15.03,0-.03-.12-.11-.05-.12.28.22.07-.2.38.05-.03.03.17.05.17.18.05,0,.12-.11-.02-.21-.13-.13-.22-.27-.38-.29l.09.1c-.12-.06-.06-.03-.15-.08-.08.07-.24-.04-.35-.03,0,0,0,0,.01,0,.09.14-.03.14-.08.16l-.07-.03c-.14-.08.15.29-.03.09-.09.21-.26.41-.41.6.06.09-.13.14.06.22-.21-.09-.37.01-.41.07-.01-.02-.03-.03-.02-.04-.31-.08.1.29-.25.16.18.17-.21.12-.03.36-.05-.02-.09-.05-.12-.08-.15.17-.37.3-.5.44.06.26-.33.24-.18.54-.12.05-.34.11-.35.31l-.02-.04c-.1.15-.24.34-.17.55-.26-.14-.26-.04-.38-.04.03.18-.16.34-.19.56-.12-.06-.05.15-.21.04-.04.64-.55,1.05-1.12,1.27h0c.03.11.16.32.21.47-.02,0-.04-.03-.03-.04-.04.1-.24.04-.28.14t-.04-.05c0,.13-.24.04-.21.22l-.04-.03v.1s-.11-.11-.07-.12c-.61.58-1.02,1.41-1.73,1.97l-.02-.07-.06.2s-.02-.04-.03-.06c-.24.06-.29.35-.47.48-.02-.02-.04-.09-.08-.1,0,.24-.34,0-.16.33-.02,0-.08-.06-.08-.1-.25.39-.59.71-.94,1.01-.01.5-.5.63-.54,1.1l-.05-.04c-.12.54-.62.83-.88,1.28-.14.16-.16.33-.28.51l-.07-.04c.05.48-.65.48-.59.98l-.08-.08c.11.15-.18.15.07.3h-.11c.16.44-.42.28-.41.68l-.04-.06c0,.1-.04.2-.12.21,0-.01-.02-.02-.02-.05-.38.03-.32.45-.52.65l-.08-.11c.03.2-.25.28-.32.46l-.04-.05v.12s-.09-.09-.09-.09c-.17.15-.25.38-.4.54Z"/>
      <path class="cls-6" d="m62.08,38.14h0s0,0,0,0Z"/>
      <path class="cls-6" d="m76.84,20.8h.04s-.03,0-.04,0Z"/>
    </g>
  </g>
</svg>